<mxfile host="app.diagrams.net" modified="2022-04-14T15:26:45.840Z" agent="5.0 (X11)" etag="4Y57T2YTQLQPxBp16E4T" version="17.4.2" type="github">
  <diagram id="QDSkLR5o7tN6vcFZzxM9" name="recording-engine">
    <mxGraphModel dx="569" dy="316" grid="1" gridSize="10" guides="1" tooltips="1" connect="1" arrows="1" fold="1" page="1" pageScale="1" pageWidth="850" pageHeight="1100" math="0" shadow="0">
      <root>
        <mxCell id="0" />
        <mxCell id="1" parent="0" />
        <mxCell id="6_ahMeyEd8oty0xdMzfe-2" value="Rendering Engine (Blink)" style="swimlane;fontSize=12;" vertex="1" parent="1">
          <mxGeometry x="110" y="270" width="280" height="230" as="geometry" />
        </mxCell>
        <mxCell id="6_ahMeyEd8oty0xdMzfe-4" value="DOM Recorder" style="swimlane;fillColor=#f8cecc;strokeColor=#000000;fontSize=10;startSize=30;" vertex="1" parent="6_ahMeyEd8oty0xdMzfe-2">
          <mxGeometry x="10" y="120" width="120" height="100" as="geometry" />
        </mxCell>
        <mxCell id="6_ahMeyEd8oty0xdMzfe-5" value="Event Sequence&#xa;Recorder" style="swimlane;fillColor=#f8cecc;strokeColor=#000000;fontSize=10;startSize=30;" vertex="1" parent="6_ahMeyEd8oty0xdMzfe-2">
          <mxGeometry x="140" y="120" width="120" height="100" as="geometry" />
        </mxCell>
      </root>
    </mxGraphModel>
  </diagram>
</mxfile>
